<?xml version="1.0" encoding="UTF-8" standalone="no"?>
<!-- Created with Inkscape (http://www.inkscape.org/) -->

<svg
   xmlns:dc="http://purl.org/dc/elements/1.1/"
   xmlns:cc="http://creativecommons.org/ns#"
   xmlns:rdf="http://www.w3.org/1999/02/22-rdf-syntax-ns#"
   xmlns:svg="http://www.w3.org/2000/svg"
   xmlns="http://www.w3.org/2000/svg"
   xmlns:sodipodi="http://sodipodi.sourceforge.net/DTD/sodipodi-0.dtd"
   xmlns:inkscape="http://www.inkscape.org/namespaces/inkscape"
   width="512"
   height="512"
   id="svg5251"
   version="1.1"
   inkscape:version="0.48.4 r9939"
   sodipodi:docname="icon.svg">
  <defs
     id="defs5253" />
  <sodipodi:namedview
     id="base"
     pagecolor="#ffffff"
     bordercolor="#666666"
     borderopacity="1.0"
     inkscape:pageopacity="0"
     inkscape:pageshadow="2"
     inkscape:zoom="0.60493827"
     inkscape:cx="69.063566"
     inkscape:cy="317.27472"
     inkscape:document-units="px"
     inkscape:current-layer="layer1"
     showgrid="false"
     inkscape:window-width="1440"
     inkscape:window-height="852"
     inkscape:window-x="0"
     inkscape:window-y="0"
     inkscape:window-maximized="1"
     showborder="true"
     inkscape:showpageshadow="false" />
  <metadata
     id="metadata5256">
    <rdf:RDF>
      <cc:Work
         rdf:about="">
        <dc:format>image/svg+xml</dc:format>
        <dc:type
           rdf:resource="http://purl.org/dc/dcmitype/StillImage" />
        <dc:title></dc:title>
      </cc:Work>
    </rdf:RDF>
  </metadata>
  <g
     inkscape:label="Layer 1"
     inkscape:groupmode="layer"
     id="layer1"
     transform="translate(0,-540.36218)">
    <g
       id="g6765"
       style="fill:#0099cc;fill-opacity:1"
       inkscape:export-filename="/Users/Alan/AndroidStudioProjects/Tracker/Tracker/icon.png"
       inkscape:export-xdpi="90"
       inkscape:export-ydpi="90">
      <path
         inkscape:connector-curvature="0"
         id="path2074"
         d="M 508.73886,987.13923 380.4671,858.86748 c 20.65393,-32.61147 32.61147,-70.65818 32.61147,-111.96603 0,-114.14014 -92.39919,-206.5393 -206.53931,-206.5393 C 92.399144,540.36215 0,632.76131 0,746.90145 c 0,114.14013 92.399144,206.53928 206.53926,206.53928 41.30786,0 79.35456,-11.95753 111.96602,-32.61146 l 128.2718,128.27173 c 4.34819,4.3482 10.87049,4.3482 15.21868,0 l 46.7431,-46.743 c 4.34819,-4.34828 4.34819,-10.87049 0,-15.21877 z M 66.309974,747.9885 c 0,-77.18047 63.048826,-141.31636 141.316336,-141.31636 77.18046,0 141.31634,63.04884 141.31634,141.31636 0,77.18047 -63.04883,141.31635 -141.31634,141.31635 C 130.44585,888.2178 66.309974,825.16897 66.309974,747.9885 z"
         style="fill:#0099cc;fill-opacity:1" />
      <g
         transform="matrix(3.7500094,0,0,3.7500094,-3211.3349,-1591.5506)"
         id="g1883"
         style="fill:#0099cc;fill-opacity:1">
        <line
           id="line1885"
           y2="610"
           x2="936"
           y1="608"
           x1="936"
           style="fill:#0099cc;fill-opacity:1" />
      </g>
      <g
         transform="matrix(3.7500094,0,0,3.7500094,-3211.3349,-1591.5506)"
         id="g1887"
         style="fill:#0099cc;fill-opacity:1">
        <polyline
           id="polyline1889"
           points="936,610 936,628 936,630    "
           style="fill:#0099cc;fill-opacity:1" />
      </g>
      <g
         transform="matrix(3.7500094,0,0,3.7500094,-3211.3349,-1591.5506)"
         style="opacity:0.29999999999999999;fill:#0099cc;fill-opacity:1"
         id="g1891">
        <path
           inkscape:connector-curvature="0"
           id="path1893"
           d="m 892,620.4 c 0,0.6 0.4,1.2 0.9,1.3 0,0 6.3,2.5 19.1,2.5 12.7,0 19.1,-2.5 19.1,-2.5 0.5,-0.2 0.9,-0.8 0.9,-1.3 V 611 c 0,-0.6 -0.4,-1 -1,-1 h -38 c -0.6,0 -1,0.4 -1,1 v 9.4 z m 30,11.6 h -20 v 2 h 20 v -2 z m 0,-4 h -20 v 2 h 20 v -2 z"
           style="fill:#0099cc;fill-opacity:1" />
      </g>
      <path
         inkscape:connector-curvature="0"
         id="path1895"
         d="m 321.17395,695.95513 v -3.75001 c 0,-2.25 -1.5,-3.75 -3.75,-3.75 -2.25001,0 -18.75005,0 -18.75005,0 v -4.50002 c 0,-4.87501 -3.00001,-8.62502 -7.50002,-10.12502 V 643.455 H 126.17347 v 30.75008 c -4.50002,1.5 -7.50002,5.25001 -7.50002,10.12502 v 4.50002 c 0,0 -16.50004,0 -18.75005,0 -2.250005,0 -3.750009,1.5 -3.750009,3.75001 v 3.75 c -4.125011,0 -7.500019,3.37501 -7.500019,7.50002 v 37.5001 c 0,4.12501 3.375008,7.50002 7.500019,7.50002 v 3.75001 c 0,2.25 1.500004,3.75001 3.750009,3.75001 2.25001,0 18.75005,0 18.75005,0 v 86.25021 c 0,2.25001 1.5,3.75001 3.75001,3.75001 h 15.00003 c 2.25001,0 3.75001,-1.5 3.75001,-3.75001 v -11.25003 h 135.00034 v 11.25003 c 0,2.25001 1.50001,3.75001 3.75001,3.75001 h 15.00004 c 2.25,0 3.75001,-1.5 3.75001,-3.75001 v -86.25021 c 0,0 16.50004,0 18.75005,0 2.25,0 3.75,-1.50001 3.75,-3.75001 v -3.75001 c 4.12502,0 7.50002,-3.37501 7.50002,-7.50002 v -37.5001 c 0,-4.50001 -3.375,-7.87502 -7.50002,-7.87502 z m -30.00007,90.75023 -7.50002,6.75002 h -30.00007 v -15.00004 l 37.50009,-7.50002 v 15.75004 z m -157.5004,-87.00022 c 0,-2.25 1.50001,-3.75001 3.75001,-3.75001 h 142.50036 c 2.25001,0 3.75001,1.87501 3.75001,3.75001 v 35.25009 c 0,2.25001 -1.5,4.50001 -3.37501,4.87501 0,0 -23.62506,9.37503 -71.62518,9.37503 -47.62512,0 -71.62518,-9.37503 -71.62518,-9.37503 -1.875,-0.75 -3.37501,-3 -3.37501,-4.87501 v -35.25009 z m -30.00007,48.75013 c 4.12501,0 7.50002,-3.37501 7.50002,-7.50002 v -37.5001 c 0,-4.12501 -3.37501,-7.50002 -7.50002,-7.50002 1.875,0 13.12503,0 15.00004,0 v 1.12501 51.37513 c -1.87501,0 -13.12504,0 -15.00004,0 z m 60.00015,60.00015 H 141.1735 v -7.50002 h 22.50006 v 7.50002 z m 0,-15.00004 h -30.00008 l -7.50001,-6.75002 v -15.75004 l 37.50009,7.50002 v 15.00004 z m 67.50017,30.00007 h -45.00011 v -15.00003 h 45.00011 v 15.00003 z m 15.00004,-37.50009 h -75.00019 v -7.50002 h 75.00019 v 7.50002 z m 0,-15.00004 h -75.00019 v -7.50002 h 75.00019 v 7.50002 z m 7.50002,37.5001 v -7.50002 h 22.50005 v 7.50002 h -22.50005 z m 60.00015,-60.00015 c -1.87501,0 -13.12504,0 -15.00004,0 v -52.50014 c 1.875,0 13.12503,0 15.00004,0 -4.12501,0 -7.50002,3.37501 -7.50002,7.50002 v 37.5001 c 0,4.12501 3.37501,7.50002 7.50002,7.50002 z"
         style="fill:#0099cc;fill-opacity:1" />
    </g>
  </g>
</svg>
